<svg width="904" height="121" viewBox="0 0 904 121" fill="none" xmlns="http://www.w3.org/2000/svg">
<path d="M28.352 0.423996V105H0.96V0.423996H28.352ZM84.16 0.423996L59.2 46.504L89.152 105H56.512L28.608 47.528L53.312 0.423996H84.16ZM94.749 0.423996H145.181C155.421 0.509328 162.845 2.68533 167.453 6.952C172.146 11.2187 175.09 15.9547 176.285 21.16C176.456 22.184 176.584 23.2507 176.669 24.36C176.84 25.4693 176.925 26.536 176.925 27.56C176.925 35.1547 174.706 41.5973 170.269 46.888C165.832 52.1787 160.584 56.744 154.525 60.584C158.536 68.6053 163.101 76.328 168.221 83.752C173.426 91.176 178.973 98.2587 184.861 105L161.949 120.872C153.501 111.315 145.992 101.032 139.421 90.024C132.85 78.9307 126.962 67.5387 121.757 55.848C123.037 54.824 124.616 53.672 126.493 52.392C128.37 51.112 130.29 49.7467 132.253 48.296C135.666 45.736 138.781 42.9627 141.597 39.976C144.498 36.904 145.949 33.7893 145.949 30.632C145.949 28.1573 145.053 26.4933 143.261 25.64C141.554 24.7867 139.677 24.3173 137.629 24.232C136.946 24.1467 136.264 24.104 135.581 24.104C134.984 24.104 134.386 24.104 133.789 24.104C133.618 24.104 133.448 24.104 133.277 24.104C133.106 24.104 132.936 24.104 132.765 24.104L88.349 23.976L94.749 0.423996ZM120.861 27.176V105H93.469V27.176H120.861ZM218.111 0.423996V105H190.719V0.423996H218.111ZM288.428 0.423996L294.828 23.976H271.788C271.447 24.0613 271.063 24.104 270.636 24.104C270.209 24.104 269.74 24.104 269.228 24.104C268.972 24.104 268.673 24.104 268.332 24.104C267.991 24.104 267.692 24.104 267.436 24.104C265.985 24.1893 264.663 24.488 263.468 25C262.273 25.4267 261.676 26.28 261.676 27.56C261.676 28.7547 262.017 29.864 262.7 30.888C263.383 31.8267 264.151 32.7227 265.004 33.576C265.175 33.832 265.345 34.088 265.516 34.344C265.772 34.5147 265.985 34.6853 266.156 34.856L285.228 55.848C288.471 59.5173 291.415 63.3147 294.06 67.24C296.791 71.1653 298.156 75.7307 298.156 80.936C298.156 82.216 298.028 83.5813 297.772 85.032C297.601 86.3973 297.26 87.848 296.748 89.384C295.383 93.3093 292.652 96.8933 288.556 100.136C284.545 103.379 278.359 105 269.996 105H238.124L231.724 81.448H256.556C256.897 81.5333 257.281 81.576 257.708 81.576C258.135 81.576 258.604 81.576 259.116 81.576C259.372 81.576 259.671 81.576 260.012 81.576C260.353 81.576 260.652 81.576 260.908 81.576C262.359 81.4907 263.681 81.2347 264.876 80.808C266.071 80.296 266.668 79.4 266.668 78.12C266.668 76.9253 266.327 75.8587 265.644 74.92C264.961 73.896 264.193 72.9573 263.34 72.104C263.169 71.848 262.956 71.6347 262.7 71.464C262.529 71.208 262.359 70.9947 262.188 70.824L243.628 49.704C240.471 46.12 237.527 42.3653 234.796 38.44C232.151 34.5147 230.828 29.9493 230.828 24.744C230.828 23.464 230.913 22.1413 231.084 20.776C231.34 19.3253 231.724 17.832 232.236 16.296C233.601 12.3707 236.289 8.78666 240.3 5.544C244.396 2.216 250.625 0.551994 258.988 0.551994L288.428 0.423996ZM392.053 0.423996V105H364.661V57H335.861V90.152C335.861 90.8347 335.861 91.5173 335.861 92.2C335.861 92.7973 335.861 93.3947 335.861 93.992C335.946 95.8693 336.074 97.7467 336.245 99.624C336.501 101.501 336.928 103.293 337.525 105L312.693 120.872C310.901 117.288 309.749 113.533 309.237 109.608C308.725 105.768 308.469 101.885 308.469 97.96V0.423996H335.861V33.448H364.661V0.423996H392.053ZM494.684 0.423996V105H467.292V74.152L438.364 38.952H438.108V105H410.716V0.423996H436.828L467.292 36.008V0.423996H494.684ZM592.451 27.176V105H565.059V71.848H535.107C535.192 77.8213 536.216 83.624 538.179 89.256C540.142 94.8027 542.616 100.051 545.603 105L523.331 119.72C518.296 112.125 514.328 103.891 511.427 95.016C508.526 86.1413 507.075 77.096 507.075 67.88C507.075 66.856 507.075 65.832 507.075 64.808C507.16 63.6987 507.246 62.632 507.331 61.608C507.928 53.5013 509.72 45.608 512.707 37.928C515.694 30.248 520.088 23.5067 525.891 17.704C533.23 10.3653 541.166 5.672 549.699 3.62399C558.232 1.57599 567.406 0.551994 577.219 0.551994L590.659 0.423996L597.059 23.976H575.555C565.23 24.0613 557.592 25.7253 552.643 28.968C547.694 32.1253 544.067 35.624 541.763 39.464C540.91 41 540.142 42.5787 539.459 44.2C538.862 45.736 538.307 47.144 537.795 48.424L565.059 48.296V27.176H592.451ZM626.725 0.423996L641.957 69.544H642.213L657.317 0.423996H686.629L658.085 105H625.957L597.413 0.423996H626.725ZM755.064 0.423996L761.464 23.976H719.352V39.464H757.624L751.224 63.016H719.352V81.448H764.28L757.88 105H691.96V0.423996H755.064ZM858.059 0.423996V105H830.667V74.152L801.739 38.952H801.483V105H774.091V0.423996H800.203L830.667 36.008V0.423996H858.059ZM903.986 0.423996V105H876.594V0.423996H903.986Z" fill="black"/>
</svg>
